# xmcd
#
# Track frame offsets:
#	150
#	16137
#	35337
#	47562
#	67437
#	85137
#	103362
#	125712
#	142737
#	157737
#
# Disc length: 2328 seconds
#
# Revision: 0
# Processed by: cddbd v1.4PL0 Copyright (c) Steve Scherf et al.
# Submitted via: dBpowerAMP V4.0
#
DISCID=8109160a
DTITLE=Dyango - Tano
DYEAR=1988
DGENRE=Blues
TTITLE0=Cada día te extraño más
TTITLE1=Naranjo en flor
TTITLE2=Los mareados
TTITLE3=Tabaco
TTITLE4=María
TTITLE5=Sur
TTITLE6=Fuimos
TTITLE7=Chau, no va más
TTITLE8=El último cafe
TTITLE9=Garúa
EXTD=
EXTT0=
EXTT1=
EXTT2=
EXTT3=
EXTT4=
EXTT5=
EXTT6=
EXTT7=
EXTT8=
EXTT9=
PLAYORDER=
